<?xml version="1.0" standalone="no"?>
<!DOCTYPE svg PUBLIC "-//W3C//DTD SVG 20010904//EN"
 "http://www.w3.org/TR/2001/REC-SVG-20010904/DTD/svg10.dtd">
<svg version="1.0" xmlns="http://www.w3.org/2000/svg"
 width="144.000000pt" height="144.000000pt" viewBox="0 0 144.000000 144.000000"
 preserveAspectRatio="xMidYMid meet">
<metadata>
Created by potrace 1.11, written by Peter Selinger 2001-2013
</metadata>
<g transform="translate(0.000000,144.000000) scale(0.100000,-0.100000)"
fill="#000000" stroke="none">
<path d="M362 1303 c-4 -1 -23 -4 -42 -7 -20 -4 -57 -24 -88 -50 -46 -37 -62
-44 -111 -49 -65 -5 -95 -20 -110 -54 -20 -43 -14 -48 50 -50 103 -4 157 -53
163 -150 4 -69 -22 -161 -89 -308 -42 -93 -61 -241 -43 -331 8 -45 42 -105 74
-134 l28 -25 -22 31 c-11 17 -30 64 -42 105 -21 76 -26 121 -10 84 5 -11 20
-33 34 -50 l26 -30 -23 55 c-43 101 -35 182 35 344 49 114 68 188 68 261 0
108 -59 166 -173 170 -32 2 -60 5 -62 7 -3 3 6 14 18 26 17 16 41 24 88 28 37
3 74 12 87 22 84 60 124 71 191 52 38 -11 86 -51 106 -90 7 -14 57 -81 110
-150 88 -114 113 -137 153 -146 33 -6 40 -14 35 -33 -6 -23 11 -28 37 -11 12
8 12 10 -5 11 -11 0 -14 3 -7 6 7 3 24 -7 39 -21 14 -14 35 -26 47 -27 11 0
40 -3 64 -5 33 -3 42 -1 36 8 -10 17 -107 152 -114 158 -14 12 -120 153 -120
159 0 11 333 5 360 -7 78 -35 119 -121 97 -202 -13 -48 -41 -81 -90 -107 -40
-21 -53 -22 -320 -22 -153 0 -282 -3 -286 -6 -5 -2 -8 -95 -8 -205 0 -110 -2
-202 -5 -206 -14 -13 -122 171 -111 189 4 6 -1 8 -12 3 -16 -6 -16 -4 -4 11 8
9 9 14 3 10 -7 -4 -15 0 -18 9 -4 10 -2 13 7 8 9 -6 9 -4 1 7 -6 8 -10 24 -9
37 1 13 -3 26 -8 29 -6 4 -8 -28 -4 -88 9 -138 5 -121 66 -279 11 -30 27 -58
35 -62 9 -5 13 -14 10 -21 -2 -6 7 -24 21 -40 25 -26 30 -27 120 -27 l95 0 -1
173 c0 94 0 195 0 223 l1 51 118 -2 c64 -1 140 -8 167 -14 44 -11 67 -16 109
-24 12 -2 26 -18 26 -30 0 -4 -12 -7 -27 -7 -16 0 -41 -1 -58 -4 -16 -2 -34
-4 -38 -5 -5 -1 -5 -6 -2 -11 4 -6 9 -9 13 -6 4 2 16 0 27 -5 17 -6 17 -8 3
-8 -10 -1 -18 -3 -18 -5 0 -3 54 -76 120 -163 l120 -158 59 -5 c90 -8 91 -7
91 61 0 50 -5 67 -27 97 -16 20 -30 39 -33 42 -3 3 -34 43 -70 90 -35 47 -67
87 -70 90 -3 3 -17 21 -32 41 l-27 36 52 23 c222 101 275 406 100 577 -104
100 -130 105 -586 107 -207 0 -380 0 -385 -1z"/>
</g>
</svg>
