<?xml version="1.0" standalone="no"?>
<!DOCTYPE svg PUBLIC "-//W3C//DTD SVG 20010904//EN"
 "http://www.w3.org/TR/2001/REC-SVG-20010904/DTD/svg10.dtd">
<svg version="1.0" xmlns="http://www.w3.org/2000/svg"
 width="194.000000pt" height="194.000000pt" viewBox="0 0 194.000000 194.000000"
 preserveAspectRatio="xMidYMid meet">
<metadata>
Created by potrace 1.11, written by Peter Selinger 2001-2013
</metadata>
<g transform="translate(0.000000,194.000000) scale(0.100000,-0.100000)"
fill="#000000" stroke="none">
<path d="M419 1744 c-36 -11 -92 -47 -128 -82 -32 -31 -62 -43 -118 -46 -32
-2 -76 -11 -96 -19 -38 -16 -77 -67 -77 -102 0 -18 7 -20 78 -22 117 -2 172
-33 207 -117 33 -79 22 -184 -37 -336 -22 -58 -56 -145 -75 -195 -76 -194 -81
-386 -14 -511 25 -45 71 -102 89 -109 14 -5 14 -4 0 12 -39 44 -84 169 -93
255 l-5 43 20 -35 c30 -54 60 -88 60 -70 0 9 -4 20 -9 25 -22 24 -43 114 -42
185 0 97 10 143 51 235 87 196 123 322 122 420 -2 148 -84 226 -242 229 -44 0
-80 4 -80 7 0 4 9 18 20 32 23 29 57 39 148 42 55 3 68 7 115 42 28 22 70 46
93 55 88 35 207 -2 260 -80 70 -103 98 -142 199 -271 61 -78 115 -141 121
-141 5 0 16 -6 23 -12 13 -14 16 -15 62 -17 17 0 28 -5 24 -11 -3 -5 7 -12 22
-16 46 -10 51 -14 11 -10 -29 4 -38 1 -38 -10 0 -19 28 -30 43 -15 16 16 31
14 57 -9 13 -11 30 -20 39 -21 9 0 25 -2 36 -5 40 -8 125 -12 125 -5 0 5 -149
202 -213 281 -67 84 -117 151 -117 157 0 5 100 8 223 7 205 0 226 -2 267 -22
94 -44 135 -109 135 -212 0 -75 -31 -139 -87 -182 -59 -45 -90 -48 -490 -48
l-378 0 0 -292 0 -292 -32 45 c-18 24 -36 46 -40 47 -5 2 -8 9 -8 16 0 7 -9
21 -20 31 -10 9 -19 20 -18 24 1 3 -6 24 -15 45 -10 22 -20 50 -23 63 -7 27
-24 31 -25 6 -1 -10 -5 -2 -9 17 -5 22 -5 37 2 41 7 4 7 9 -1 13 -6 4 -12 33
-12 64 -1 44 -3 50 -8 27 -8 -35 -6 -151 4 -245 7 -70 21 -120 62 -215 41 -97
47 -109 62 -121 8 -7 11 -16 6 -24 -6 -9 -4 -11 5 -5 9 6 12 4 8 -6 -3 -9 8
-31 26 -52 l32 -38 128 3 128 3 -1 297 0 298 149 0 c126 0 165 -4 257 -26 125
-30 133 -32 152 -33 8 -1 11 -4 8 -8 -4 -3 -2 -12 3 -18 9 -11 -39 -20 -152
-28 -10 -1 -18 -5 -18 -9 0 -13 34 -26 67 -23 18 1 38 -2 45 -6 8 -5 -4 -8
-30 -7 -23 1 -44 -1 -46 -3 -4 -4 206 -284 310 -414 23 -30 25 -30 116 -30
l93 1 3 82 3 83 -148 192 c-81 106 -150 194 -153 197 -3 3 -15 18 -27 34 l-21
30 77 37 c92 45 174 126 220 217 17 34 29 62 27 62 -3 0 1 17 8 38 17 48 20
154 6 215 -29 130 -130 262 -249 326 -34 18 -61 30 -61 27 0 -3 -17 2 -37 11
-33 14 -105 16 -582 17 -384 1 -555 -2 -582 -10z m138 -1056 c-3 -8 -6 -5 -6
6 -1 11 2 17 5 13 3 -3 4 -12 1 -19z m16 -38 c3 -11 1 -18 -4 -14 -5 3 -9 12
-9 20 0 20 7 17 13 -6z m912 -50 c3 -5 -1 -10 -10 -10 -9 0 -13 5 -10 10 3 6
8 10 10 10 2 0 7 -4 10 -10z"/>
</g>
</svg>
